<mxfile host="app.diagrams.net" modified="2021-10-19T09:09:19.804Z" agent="5.0 (Windows NT 10.0; Win64; x64) AppleWebKit/537.36 (KHTML, like Gecko) Chrome/94.0.4606.81 Safari/537.36 Edg/94.0.992.50" etag="odV8v0ANtNUA8iBrB6j8" version="15.5.5" type="github">
  <diagram id="qVD_Ddcjk3obwNzJvVFi" name="Page-1">
    <mxGraphModel dx="1038" dy="547" grid="1" gridSize="10" guides="1" tooltips="1" connect="1" arrows="1" fold="1" page="1" pageScale="1" pageWidth="1654" pageHeight="2336" math="0" shadow="0">
      <root>
        <mxCell id="0" />
        <mxCell id="1" parent="0" />
        <mxCell id="1LDeUR8kK-ZFBD-OeKCy-27" style="edgeStyle=elbowEdgeStyle;rounded=0;orthogonalLoop=1;jettySize=auto;elbow=vertical;html=1;entryX=0.5;entryY=0;entryDx=0;entryDy=0;" parent="1" source="1LDeUR8kK-ZFBD-OeKCy-3" target="1LDeUR8kK-ZFBD-OeKCy-25" edge="1">
          <mxGeometry relative="1" as="geometry" />
        </mxCell>
        <mxCell id="1LDeUR8kK-ZFBD-OeKCy-3" value="登入" style="strokeWidth=2;html=1;shape=mxgraph.flowchart.start_1;whiteSpace=wrap;" parent="1" vertex="1">
          <mxGeometry x="1020" y="20" width="100" height="60" as="geometry" />
        </mxCell>
        <mxCell id="1LDeUR8kK-ZFBD-OeKCy-13" style="edgeStyle=orthogonalEdgeStyle;rounded=0;orthogonalLoop=1;jettySize=auto;html=1;startArrow=none;" parent="1" source="1LDeUR8kK-ZFBD-OeKCy-25" edge="1">
          <mxGeometry relative="1" as="geometry">
            <mxPoint x="1070" y="210" as="targetPoint" />
          </mxGeometry>
        </mxCell>
        <mxCell id="1LDeUR8kK-ZFBD-OeKCy-31" style="edgeStyle=elbowEdgeStyle;rounded=0;orthogonalLoop=1;jettySize=auto;elbow=vertical;html=1;" parent="1" source="1LDeUR8kK-ZFBD-OeKCy-24" edge="1">
          <mxGeometry relative="1" as="geometry">
            <mxPoint x="790" y="1270" as="targetPoint" />
          </mxGeometry>
        </mxCell>
        <mxCell id="1LDeUR8kK-ZFBD-OeKCy-24" value="js秀題目&lt;br&gt;等用戶輸入" style="rounded=1;whiteSpace=wrap;html=1;" parent="1" vertex="1">
          <mxGeometry x="730" y="1180" width="120" height="60" as="geometry" />
        </mxCell>
        <mxCell id="1LDeUR8kK-ZFBD-OeKCy-25" value="進到ai學習" style="rounded=1;whiteSpace=wrap;html=1;" parent="1" vertex="1">
          <mxGeometry x="1010" y="110" width="120" height="60" as="geometry" />
        </mxCell>
        <mxCell id="1LDeUR8kK-ZFBD-OeKCy-38" value="" style="edgeStyle=elbowEdgeStyle;rounded=0;orthogonalLoop=1;jettySize=auto;elbow=vertical;html=1;" parent="1" source="1LDeUR8kK-ZFBD-OeKCy-28" target="1LDeUR8kK-ZFBD-OeKCy-35" edge="1">
          <mxGeometry relative="1" as="geometry" />
        </mxCell>
        <mxCell id="1LDeUR8kK-ZFBD-OeKCy-28" value="用戶選擇答案&lt;br&gt;跑回答api" style="shape=parallelogram;html=1;strokeWidth=2;perimeter=parallelogramPerimeter;whiteSpace=wrap;rounded=1;arcSize=12;size=0.23;" parent="1" vertex="1">
          <mxGeometry x="725" y="1270" width="130" height="60" as="geometry" />
        </mxCell>
        <mxCell id="1LDeUR8kK-ZFBD-OeKCy-34" value="" style="edgeStyle=elbowEdgeStyle;rounded=0;orthogonalLoop=1;jettySize=auto;elbow=vertical;html=1;" parent="1" source="1LDeUR8kK-ZFBD-OeKCy-32" target="1LDeUR8kK-ZFBD-OeKCy-24" edge="1">
          <mxGeometry relative="1" as="geometry" />
        </mxCell>
        <mxCell id="1LDeUR8kK-ZFBD-OeKCy-32" value="出題api亂數出題&lt;br&gt;寫紀錄到資料庫&lt;br&gt;丟題目json" style="rounded=1;whiteSpace=wrap;html=1;" parent="1" vertex="1">
          <mxGeometry x="730" y="1090" width="120" height="60" as="geometry" />
        </mxCell>
        <mxCell id="1LDeUR8kK-ZFBD-OeKCy-46" value="" style="edgeStyle=orthogonalEdgeStyle;rounded=0;orthogonalLoop=1;jettySize=auto;html=1;" parent="1" source="1LDeUR8kK-ZFBD-OeKCy-35" target="1LDeUR8kK-ZFBD-OeKCy-45" edge="1">
          <mxGeometry relative="1" as="geometry" />
        </mxCell>
        <mxCell id="1LDeUR8kK-ZFBD-OeKCy-35" value="回答api比對答案&lt;br&gt;並判斷是否會有下一題及下一題是可以選語言還是單純題&lt;br&gt;寫紀錄到資料庫&lt;br&gt;丟答案解析json" style="rounded=1;whiteSpace=wrap;html=1;" parent="1" vertex="1">
          <mxGeometry x="730" y="1360" width="120" height="60" as="geometry" />
        </mxCell>
        <mxCell id="AwQCWGuNYsqQ_4neco2N-31" style="edgeStyle=orthogonalEdgeStyle;rounded=0;orthogonalLoop=1;jettySize=auto;html=1;entryX=0.5;entryY=0;entryDx=0;entryDy=0;" edge="1" parent="1" source="1LDeUR8kK-ZFBD-OeKCy-45" target="AwQCWGuNYsqQ_4neco2N-30">
          <mxGeometry relative="1" as="geometry" />
        </mxCell>
        <mxCell id="1LDeUR8kK-ZFBD-OeKCy-45" value="js秀答案解析" style="rounded=1;whiteSpace=wrap;html=1;" parent="1" vertex="1">
          <mxGeometry x="730" y="1460" width="120" height="60" as="geometry" />
        </mxCell>
        <mxCell id="1LDeUR8kK-ZFBD-OeKCy-49" value="秀結尾" style="rounded=1;whiteSpace=wrap;html=1;" parent="1" vertex="1">
          <mxGeometry x="730" y="1670" width="120" height="60" as="geometry" />
        </mxCell>
        <mxCell id="5gB5hO8Ey-pR2DuHm7CH-16" value="空的" style="text;html=1;align=center;verticalAlign=middle;resizable=0;points=[];autosize=1;strokeColor=none;" parent="1" vertex="1">
          <mxGeometry x="770" y="320" width="40" height="20" as="geometry" />
        </mxCell>
        <mxCell id="5gB5hO8Ey-pR2DuHm7CH-19" value="還沒" style="text;html=1;align=center;verticalAlign=middle;resizable=0;points=[];autosize=1;strokeColor=none;" parent="1" vertex="1">
          <mxGeometry x="1100" y="940" width="40" height="20" as="geometry" />
        </mxCell>
        <mxCell id="5gB5hO8Ey-pR2DuHm7CH-26" value="" style="edgeStyle=orthogonalEdgeStyle;rounded=0;orthogonalLoop=1;jettySize=auto;html=1;" parent="1" source="5gB5hO8Ey-pR2DuHm7CH-23" target="5gB5hO8Ey-pR2DuHm7CH-24" edge="1">
          <mxGeometry relative="1" as="geometry" />
        </mxCell>
        <mxCell id="5gB5hO8Ey-pR2DuHm7CH-23" value="&lt;span&gt;&quot;今天&quot;紀錄api&lt;/span&gt;" style="rounded=1;whiteSpace=wrap;html=1;" parent="1" vertex="1">
          <mxGeometry x="1010" y="210" width="120" height="60" as="geometry" />
        </mxCell>
        <mxCell id="zl-rA9VTAD_YOzvQHLIl-2" style="edgeStyle=orthogonalEdgeStyle;rounded=0;orthogonalLoop=1;jettySize=auto;html=1;" parent="1" source="5gB5hO8Ey-pR2DuHm7CH-24" target="zl-rA9VTAD_YOzvQHLIl-1" edge="1">
          <mxGeometry relative="1" as="geometry" />
        </mxCell>
        <mxCell id="yNauPfSO7qSOc2ZZRqyg-8" value="" style="edgeStyle=orthogonalEdgeStyle;rounded=0;orthogonalLoop=1;jettySize=auto;html=1;" parent="1" source="5gB5hO8Ey-pR2DuHm7CH-24" target="yNauPfSO7qSOc2ZZRqyg-7" edge="1">
          <mxGeometry relative="1" as="geometry" />
        </mxCell>
        <mxCell id="t2J9YH_NnCv9hkLFN8VA-5" style="edgeStyle=orthogonalEdgeStyle;rounded=0;orthogonalLoop=1;jettySize=auto;html=1;" parent="1" source="5gB5hO8Ey-pR2DuHm7CH-24" target="t2J9YH_NnCv9hkLFN8VA-1" edge="1">
          <mxGeometry relative="1" as="geometry" />
        </mxCell>
        <mxCell id="5gB5hO8Ey-pR2DuHm7CH-24" value="&lt;span&gt;用js去判斷丟過來的內容&lt;/span&gt;" style="rhombus;whiteSpace=wrap;html=1;" parent="1" vertex="1">
          <mxGeometry x="1020" y="300" width="100" height="90" as="geometry" />
        </mxCell>
        <mxCell id="zl-rA9VTAD_YOzvQHLIl-1" value="秀出來" style="rounded=1;whiteSpace=wrap;html=1;" parent="1" vertex="1">
          <mxGeometry x="1220" y="430" width="120" height="60" as="geometry" />
        </mxCell>
        <mxCell id="zl-rA9VTAD_YOzvQHLIl-3" value="全做完了" style="text;html=1;align=center;verticalAlign=middle;resizable=0;points=[];autosize=1;strokeColor=none;" parent="1" vertex="1">
          <mxGeometry x="1150" y="320" width="60" height="20" as="geometry" />
        </mxCell>
        <mxCell id="yNauPfSO7qSOc2ZZRqyg-6" style="edgeStyle=orthogonalEdgeStyle;rounded=0;orthogonalLoop=1;jettySize=auto;html=1;exitX=1;exitY=0.5;exitDx=0;exitDy=0;entryX=1;entryY=0.5;entryDx=0;entryDy=0;" parent="1" source="yNauPfSO7qSOc2ZZRqyg-2" target="1LDeUR8kK-ZFBD-OeKCy-24" edge="1">
          <mxGeometry relative="1" as="geometry" />
        </mxCell>
        <mxCell id="yNauPfSO7qSOc2ZZRqyg-12" style="edgeStyle=orthogonalEdgeStyle;rounded=0;orthogonalLoop=1;jettySize=auto;html=1;entryX=1;entryY=0;entryDx=0;entryDy=0;" parent="1" source="yNauPfSO7qSOc2ZZRqyg-2" edge="1">
          <mxGeometry relative="1" as="geometry">
            <mxPoint x="820" y="980" as="targetPoint" />
          </mxGeometry>
        </mxCell>
        <mxCell id="yNauPfSO7qSOc2ZZRqyg-2" value="回答目前的最後一題了嗎" style="rhombus;whiteSpace=wrap;html=1;" parent="1" vertex="1">
          <mxGeometry x="1010" y="525" width="120" height="90" as="geometry" />
        </mxCell>
        <mxCell id="yNauPfSO7qSOc2ZZRqyg-5" value="回答了" style="text;html=1;align=center;verticalAlign=middle;resizable=0;points=[];autosize=1;strokeColor=none;" parent="1" vertex="1">
          <mxGeometry x="900" y="550" width="50" height="20" as="geometry" />
        </mxCell>
        <mxCell id="yNauPfSO7qSOc2ZZRqyg-10" value="" style="edgeStyle=orthogonalEdgeStyle;rounded=0;orthogonalLoop=1;jettySize=auto;html=1;" parent="1" source="yNauPfSO7qSOc2ZZRqyg-7" target="yNauPfSO7qSOc2ZZRqyg-2" edge="1">
          <mxGeometry relative="1" as="geometry" />
        </mxCell>
        <mxCell id="yNauPfSO7qSOc2ZZRqyg-7" value="將做過的題目及回答秀出來" style="rounded=1;whiteSpace=wrap;html=1;" parent="1" vertex="1">
          <mxGeometry x="1010" y="430" width="120" height="60" as="geometry" />
        </mxCell>
        <mxCell id="yNauPfSO7qSOc2ZZRqyg-13" value="做到一半" style="text;html=1;align=center;verticalAlign=middle;resizable=0;points=[];autosize=1;strokeColor=none;" parent="1" vertex="1">
          <mxGeometry x="1070" y="400" width="60" height="20" as="geometry" />
        </mxCell>
        <mxCell id="t2J9YH_NnCv9hkLFN8VA-8" style="edgeStyle=orthogonalEdgeStyle;rounded=0;orthogonalLoop=1;jettySize=auto;html=1;entryX=0.5;entryY=0;entryDx=0;entryDy=0;" parent="1" source="t2J9YH_NnCv9hkLFN8VA-1" target="t2J9YH_NnCv9hkLFN8VA-3" edge="1">
          <mxGeometry relative="1" as="geometry" />
        </mxCell>
        <mxCell id="t2J9YH_NnCv9hkLFN8VA-1" value="抓打招呼" style="rounded=1;whiteSpace=wrap;html=1;" parent="1" vertex="1">
          <mxGeometry x="510" y="430" width="120" height="60" as="geometry" />
        </mxCell>
        <mxCell id="AwQCWGuNYsqQ_4neco2N-1" style="edgeStyle=orthogonalEdgeStyle;rounded=0;orthogonalLoop=1;jettySize=auto;html=1;entryX=0;entryY=0.5;entryDx=0;entryDy=0;" edge="1" parent="1" source="t2J9YH_NnCv9hkLFN8VA-3" target="t2J9YH_NnCv9hkLFN8VA-9">
          <mxGeometry relative="1" as="geometry">
            <mxPoint x="380" y="690" as="targetPoint" />
            <Array as="points">
              <mxPoint x="380" y="610" />
              <mxPoint x="380" y="730" />
              <mxPoint x="510" y="730" />
            </Array>
          </mxGeometry>
        </mxCell>
        <mxCell id="AwQCWGuNYsqQ_4neco2N-19" style="edgeStyle=orthogonalEdgeStyle;rounded=0;orthogonalLoop=1;jettySize=auto;html=1;entryX=0.5;entryY=0;entryDx=0;entryDy=0;" edge="1" parent="1" source="t2J9YH_NnCv9hkLFN8VA-3">
          <mxGeometry relative="1" as="geometry">
            <mxPoint x="790" y="960" as="targetPoint" />
          </mxGeometry>
        </mxCell>
        <mxCell id="t2J9YH_NnCv9hkLFN8VA-3" value="判斷是否有兩種語言" style="rhombus;whiteSpace=wrap;html=1;" parent="1" vertex="1">
          <mxGeometry x="510" y="570" width="120" height="80" as="geometry" />
        </mxCell>
        <mxCell id="t2J9YH_NnCv9hkLFN8VA-7" value="沒有買" style="text;html=1;align=center;verticalAlign=middle;resizable=0;points=[];autosize=1;strokeColor=none;fillColor=none;" parent="1" vertex="1">
          <mxGeometry x="665" y="590" width="50" height="20" as="geometry" />
        </mxCell>
        <mxCell id="AwQCWGuNYsqQ_4neco2N-21" style="edgeStyle=orthogonalEdgeStyle;rounded=0;orthogonalLoop=1;jettySize=auto;html=1;entryX=0.5;entryY=0;entryDx=0;entryDy=0;" edge="1" parent="1" source="t2J9YH_NnCv9hkLFN8VA-9" target="AwQCWGuNYsqQ_4neco2N-3">
          <mxGeometry relative="1" as="geometry" />
        </mxCell>
        <mxCell id="t2J9YH_NnCv9hkLFN8VA-9" value="在前端顯示使用者要先哪語言" style="rounded=1;whiteSpace=wrap;html=1;" parent="1" vertex="1">
          <mxGeometry x="510" y="700" width="120" height="60" as="geometry" />
        </mxCell>
        <mxCell id="t2J9YH_NnCv9hkLFN8VA-11" value="有買" style="text;html=1;align=center;verticalAlign=middle;resizable=0;points=[];autosize=1;strokeColor=none;fillColor=none;" parent="1" vertex="1">
          <mxGeometry x="430" y="590" width="40" height="20" as="geometry" />
        </mxCell>
        <mxCell id="AwQCWGuNYsqQ_4neco2N-24" style="edgeStyle=orthogonalEdgeStyle;rounded=0;orthogonalLoop=1;jettySize=auto;html=1;entryX=0;entryY=0;entryDx=0;entryDy=0;" edge="1" parent="1" source="AwQCWGuNYsqQ_4neco2N-3">
          <mxGeometry relative="1" as="geometry">
            <mxPoint x="760" y="980" as="targetPoint" />
            <Array as="points">
              <mxPoint x="570" y="900" />
              <mxPoint x="760" y="900" />
            </Array>
          </mxGeometry>
        </mxCell>
        <mxCell id="AwQCWGuNYsqQ_4neco2N-3" value="使用者選擇語言" style="rounded=1;whiteSpace=wrap;html=1;" vertex="1" parent="1">
          <mxGeometry x="510" y="810" width="120" height="60" as="geometry" />
        </mxCell>
        <mxCell id="AwQCWGuNYsqQ_4neco2N-12" style="edgeStyle=orthogonalEdgeStyle;rounded=0;orthogonalLoop=1;jettySize=auto;html=1;entryX=0.5;entryY=0;entryDx=0;entryDy=0;" edge="1" parent="1" source="AwQCWGuNYsqQ_4neco2N-7" target="AwQCWGuNYsqQ_4neco2N-11">
          <mxGeometry relative="1" as="geometry" />
        </mxCell>
        <mxCell id="AwQCWGuNYsqQ_4neco2N-29" style="edgeStyle=orthogonalEdgeStyle;rounded=0;orthogonalLoop=1;jettySize=auto;html=1;entryX=0.5;entryY=0;entryDx=0;entryDy=0;" edge="1" parent="1" source="AwQCWGuNYsqQ_4neco2N-7">
          <mxGeometry relative="1" as="geometry">
            <mxPoint x="790" y="1092" as="targetPoint" />
          </mxGeometry>
        </mxCell>
        <mxCell id="AwQCWGuNYsqQ_4neco2N-7" value="出題api&lt;br&gt;判斷使用者&lt;br&gt;題數限制到了沒" style="rhombus;whiteSpace=wrap;html=1;" vertex="1" parent="1">
          <mxGeometry x="720" y="960" width="140" height="80" as="geometry" />
        </mxCell>
        <mxCell id="AwQCWGuNYsqQ_4neco2N-10" value="還沒" style="text;html=1;align=center;verticalAlign=middle;resizable=0;points=[];autosize=1;strokeColor=none;fillColor=none;" vertex="1" parent="1">
          <mxGeometry x="800" y="1050" width="40" height="20" as="geometry" />
        </mxCell>
        <mxCell id="AwQCWGuNYsqQ_4neco2N-40" style="edgeStyle=orthogonalEdgeStyle;rounded=0;orthogonalLoop=1;jettySize=auto;html=1;entryX=0;entryY=0.5;entryDx=0;entryDy=0;" edge="1" parent="1" source="AwQCWGuNYsqQ_4neco2N-11" target="1LDeUR8kK-ZFBD-OeKCy-32">
          <mxGeometry relative="1" as="geometry" />
        </mxCell>
        <mxCell id="AwQCWGuNYsqQ_4neco2N-11" value="看是否還有其他語言的題目" style="rhombus;whiteSpace=wrap;html=1;" vertex="1" parent="1">
          <mxGeometry x="540" y="1082" width="100" height="80" as="geometry" />
        </mxCell>
        <mxCell id="AwQCWGuNYsqQ_4neco2N-16" value="到了" style="text;html=1;align=center;verticalAlign=middle;resizable=0;points=[];autosize=1;strokeColor=none;fillColor=none;" vertex="1" parent="1">
          <mxGeometry x="600" y="1030" width="40" height="20" as="geometry" />
        </mxCell>
        <mxCell id="AwQCWGuNYsqQ_4neco2N-25" value="在出題api判斷題數限制到了" style="rhombus;whiteSpace=wrap;html=1;" vertex="1" parent="1">
          <mxGeometry x="210" y="950" width="120" height="80" as="geometry" />
        </mxCell>
        <mxCell id="AwQCWGuNYsqQ_4neco2N-32" style="edgeStyle=orthogonalEdgeStyle;rounded=0;orthogonalLoop=1;jettySize=auto;html=1;" edge="1" parent="1" source="AwQCWGuNYsqQ_4neco2N-30" target="AwQCWGuNYsqQ_4neco2N-33">
          <mxGeometry relative="1" as="geometry">
            <mxPoint x="450" y="970" as="targetPoint" />
          </mxGeometry>
        </mxCell>
        <mxCell id="AwQCWGuNYsqQ_4neco2N-30" value="是否有下一題" style="rhombus;whiteSpace=wrap;html=1;" vertex="1" parent="1">
          <mxGeometry x="750" y="1560" width="80" height="80" as="geometry" />
        </mxCell>
        <mxCell id="AwQCWGuNYsqQ_4neco2N-36" style="edgeStyle=orthogonalEdgeStyle;rounded=0;orthogonalLoop=1;jettySize=auto;html=1;entryX=0;entryY=0.75;entryDx=0;entryDy=0;" edge="1" parent="1" source="AwQCWGuNYsqQ_4neco2N-33" target="t2J9YH_NnCv9hkLFN8VA-9">
          <mxGeometry relative="1" as="geometry">
            <Array as="points">
              <mxPoint x="450" y="745" />
            </Array>
          </mxGeometry>
        </mxCell>
        <mxCell id="AwQCWGuNYsqQ_4neco2N-37" style="edgeStyle=orthogonalEdgeStyle;rounded=0;orthogonalLoop=1;jettySize=auto;html=1;entryX=0.191;entryY=0.318;entryDx=0;entryDy=0;entryPerimeter=0;" edge="1" parent="1" source="AwQCWGuNYsqQ_4neco2N-33" target="AwQCWGuNYsqQ_4neco2N-7">
          <mxGeometry relative="1" as="geometry" />
        </mxCell>
        <mxCell id="AwQCWGuNYsqQ_4neco2N-33" value="下一題是繼續還是選語言" style="rhombus;whiteSpace=wrap;html=1;" vertex="1" parent="1">
          <mxGeometry x="410" y="946" width="80" height="80" as="geometry" />
        </mxCell>
        <mxCell id="AwQCWGuNYsqQ_4neco2N-34" value="有" style="text;html=1;align=center;verticalAlign=middle;resizable=0;points=[];autosize=1;strokeColor=none;fillColor=none;" vertex="1" parent="1">
          <mxGeometry x="445" y="1380" width="30" height="20" as="geometry" />
        </mxCell>
        <mxCell id="AwQCWGuNYsqQ_4neco2N-38" value="繼續" style="text;html=1;align=center;verticalAlign=middle;resizable=0;points=[];autosize=1;strokeColor=none;fillColor=none;" vertex="1" parent="1">
          <mxGeometry x="530" y="960" width="40" height="20" as="geometry" />
        </mxCell>
        <mxCell id="AwQCWGuNYsqQ_4neco2N-39" value="語言" style="text;html=1;align=center;verticalAlign=middle;resizable=0;points=[];autosize=1;strokeColor=none;fillColor=none;" vertex="1" parent="1">
          <mxGeometry x="410" y="880" width="40" height="20" as="geometry" />
        </mxCell>
        <mxCell id="AwQCWGuNYsqQ_4neco2N-41" value="有" style="text;html=1;align=center;verticalAlign=middle;resizable=0;points=[];autosize=1;strokeColor=none;fillColor=none;" vertex="1" parent="1">
          <mxGeometry x="665" y="1100" width="30" height="20" as="geometry" />
        </mxCell>
      </root>
    </mxGraphModel>
  </diagram>
</mxfile>
